<svg width="73" height="14" viewBox="0 0 73 14" fill="none" xmlns="http://www.w3.org/2000/svg">
<path d="M0.912 13V1.96H2.768V11.448H7.712L7.512 13H0.912ZM14.6338 4.552V11.688H16.9298V13H10.3138V11.688H12.8418V5.864H10.3938V4.552H14.6338ZM13.3858 0.415999C13.7378 0.415999 14.0204 0.522666 14.2338 0.735999C14.4524 0.949333 14.5618 1.216 14.5618 1.536C14.5618 1.856 14.4524 2.12533 14.2338 2.344C14.0204 2.56267 13.7378 2.672 13.3858 2.672C13.0444 2.672 12.7644 2.56267 12.5458 2.344C12.3271 2.12533 12.2178 1.856 12.2178 1.536C12.2178 1.216 12.3271 0.949333 12.5458 0.735999C12.7644 0.522666 13.0444 0.415999 13.3858 0.415999ZM27.0115 4.552L24.0355 13H21.9395L18.9635 4.552H20.8835L23.0275 11.512L25.1795 4.552H27.0115ZM30.6933 9.352C30.7306 9.928 30.8533 10.4 31.0613 10.768C31.2693 11.1307 31.5413 11.3973 31.8773 11.568C32.2186 11.7387 32.5919 11.824 32.9973 11.824C33.4133 11.824 33.7973 11.76 34.1493 11.632C34.5013 11.504 34.8559 11.3227 35.2133 11.088L35.9893 12.16C35.5946 12.48 35.1333 12.736 34.6053 12.928C34.0773 13.12 33.5119 13.216 32.9093 13.216C32.0346 13.216 31.2933 13.0293 30.6853 12.656C30.0826 12.2827 29.6239 11.7627 29.3093 11.096C28.9946 10.4293 28.8372 9.65867 28.8372 8.784C28.8372 7.936 28.9919 7.17867 29.3013 6.512C29.6106 5.84 30.0533 5.30933 30.6293 4.92C31.2053 4.52533 31.8933 4.328 32.6933 4.328C33.4453 4.328 34.0906 4.49867 34.6293 4.84C35.1733 5.18133 35.5919 5.66667 35.8853 6.296C36.1839 6.92 36.3333 7.672 36.3333 8.552C36.3333 8.696 36.3279 8.84 36.3173 8.984C36.3119 9.12267 36.3039 9.24533 36.2933 9.352H30.6933ZM32.7093 5.656C32.1493 5.656 31.6853 5.856 31.3173 6.256C30.9546 6.656 30.7439 7.28 30.6853 8.128H34.5973C34.5813 7.33333 34.4106 6.72267 34.0853 6.296C33.7653 5.86933 33.3066 5.656 32.7093 5.656ZM56.0442 3.384L56.8682 4.68L51.3962 7.984L56.8682 11.288L55.9882 12.576L49.8522 8.752V7.216L56.0442 3.384ZM66.6842 3.384L72.8683 7.208V8.752L66.7323 12.576L65.8522 11.312L71.3323 7.984L65.8522 4.704L66.6842 3.384ZM67.5163 6.696L68.6523 7.24C68.4709 7.61867 68.2576 7.976 68.0123 8.312C67.7723 8.648 67.4843 8.92267 67.1483 9.136C66.8176 9.34933 66.4149 9.456 65.9402 9.456C65.5616 9.456 65.2336 9.376 64.9562 9.216C64.6736 9.056 64.4202 8.86933 64.1962 8.656C63.9669 8.44267 63.7456 8.256 63.5322 8.096C63.3136 7.936 63.0789 7.856 62.8282 7.856C62.5829 7.856 62.3589 7.936 62.1562 8.096C61.9482 8.256 61.7376 8.44267 61.5242 8.656C61.3109 8.86933 61.0709 9.056 60.8042 9.216C60.5322 9.376 60.2069 9.456 59.8282 9.456C59.4496 9.456 59.1216 9.376 58.8442 9.216C58.5616 9.056 58.3082 8.86933 58.0842 8.656C57.8549 8.44267 57.6336 8.256 57.4202 8.096C57.2016 7.936 56.9669 7.856 56.7162 7.856C56.3856 7.856 56.1029 7.98133 55.8682 8.232C55.6282 8.47733 55.4042 8.792 55.1962 9.176L54.0602 8.64C54.2469 8.272 54.4602 7.92 54.7002 7.584C54.9349 7.24267 55.2202 6.96267 55.5562 6.744C55.8922 6.52 56.2976 6.408 56.7722 6.408C57.1722 6.408 57.5136 6.488 57.7962 6.648C58.0789 6.808 58.3322 6.99467 58.5562 7.208C58.7802 7.42133 58.9962 7.608 59.2042 7.768C59.4122 7.928 59.6389 8.008 59.8842 8.008C60.1242 8.008 60.3429 7.928 60.5402 7.768C60.7376 7.608 60.9429 7.42133 61.1562 7.208C61.3642 6.99467 61.6042 6.808 61.8762 6.648C62.1482 6.488 62.4842 6.408 62.8842 6.408C63.2842 6.408 63.6256 6.488 63.9082 6.648C64.1909 6.808 64.4442 6.99467 64.6682 7.208C64.8922 7.42133 65.1082 7.608 65.3162 7.768C65.5242 7.928 65.7509 8.008 65.9962 8.008C66.3163 8.008 66.5963 7.888 66.8363 7.648C67.0816 7.40267 67.3083 7.08533 67.5163 6.696Z" fill="white"/>
</svg>
