<svg width="93" height="14" viewBox="0 0 93 14" fill="none" xmlns="http://www.w3.org/2000/svg">
<path d="M4.66674 13.216C3.72807 13.216 2.92274 13.0027 2.25074 12.576C1.57874 12.144 1.06407 11.5013 0.706735 10.648C0.349402 9.79467 0.170735 8.73333 0.170735 7.464C0.170735 6.52 0.298735 5.69067 0.554735 4.976C0.810735 4.26133 1.16274 3.664 1.61074 3.184C2.05874 2.704 2.57074 2.344 3.14674 2.104C3.72807 1.85867 4.3414 1.736 4.98674 1.736C5.73874 1.736 6.3654 1.848 6.86674 2.072C7.3734 2.296 7.84274 2.608 8.27474 3.008L7.23474 4.088C6.89874 3.77867 6.55474 3.552 6.20274 3.408C5.85607 3.25867 5.46674 3.184 5.03474 3.184C4.6454 3.184 4.27474 3.26133 3.92274 3.416C3.57607 3.56533 3.26674 3.808 2.99474 4.144C2.72274 4.47467 2.50674 4.91467 2.34674 5.464C2.19207 6.008 2.11474 6.67733 2.11474 7.472C2.11474 8.496 2.2134 9.32533 2.41074 9.96C2.60807 10.5893 2.9014 11.048 3.29074 11.336C3.6854 11.624 4.1734 11.768 4.75474 11.768C5.09074 11.768 5.41074 11.728 5.71474 11.648C6.01874 11.568 6.30674 11.4533 6.57874 11.304V8.264H4.70674L4.50674 6.848H8.37874V12.2C7.85607 12.4933 7.29874 12.736 6.70674 12.928C6.12007 13.12 5.44007 13.216 4.66674 13.216ZM15.2125 4.552V11.688H17.5085V13H10.8925V11.688H13.4205V5.864H10.9725V4.552H15.2125ZM13.9645 0.415999C14.3165 0.415999 14.5992 0.522666 14.8125 0.735999C15.0312 0.949333 15.1405 1.216 15.1405 1.536C15.1405 1.856 15.0312 2.12533 14.8125 2.344C14.5992 2.56267 14.3165 2.672 13.9645 2.672C13.6232 2.672 13.3432 2.56267 13.1245 2.344C12.9058 2.12533 12.7965 1.856 12.7965 1.536C12.7965 1.216 12.9058 0.949333 13.1245 0.735999C13.3432 0.522666 13.6232 0.415999 13.9645 0.415999ZM27.2462 12.552C26.9369 12.7493 26.5662 12.9093 26.1342 13.032C25.7022 13.1547 25.2516 13.216 24.7822 13.216C23.8009 13.216 23.0542 12.9627 22.5422 12.456C22.0356 11.944 21.7822 11.272 21.7822 10.44V5.856H19.9022V4.552H21.7822V2.664L23.5742 2.448V4.552H26.4222L26.2222 5.856H23.5742V10.424C23.5742 10.8773 23.6862 11.216 23.9102 11.44C24.1396 11.6587 24.5129 11.768 25.0302 11.768C25.3396 11.768 25.6249 11.7307 25.8862 11.656C26.1476 11.5813 26.3849 11.4853 26.5982 11.368L27.2462 12.552ZM31.576 0.983999V5.584C31.9173 5.168 32.3173 4.856 32.776 4.648C33.2347 4.43467 33.7067 4.328 34.192 4.328C34.9867 4.328 35.5787 4.54933 35.968 4.992C36.3573 5.42933 36.552 6.04533 36.552 6.84V13H34.76V7.12C34.76 6.61333 34.664 6.25067 34.472 6.032C34.28 5.808 33.9707 5.696 33.544 5.696C33.2773 5.696 33.0213 5.75733 32.776 5.88C32.536 5.99733 32.312 6.152 32.104 6.344C31.9013 6.536 31.7253 6.74133 31.576 6.96V13H29.784V1.176L31.576 0.983999ZM41.1697 4.552V10.456C41.1697 10.9573 41.2684 11.3147 41.4657 11.528C41.6684 11.7413 41.9724 11.848 42.3777 11.848C42.7617 11.848 43.1324 11.7333 43.4897 11.504C43.8471 11.2747 44.1297 10.9947 44.3377 10.664V4.552H46.1297V13H44.5857L44.4737 11.92C44.1591 12.3413 43.7617 12.664 43.2817 12.888C42.8017 13.1067 42.3111 13.216 41.8097 13.216C40.9937 13.216 40.3831 12.992 39.9777 12.544C39.5777 12.0907 39.3777 11.4693 39.3777 10.68V4.552H41.1697ZM50.7635 5.56C51.0568 5.176 51.3982 4.87467 51.7875 4.656C52.1822 4.43733 52.6142 4.328 53.0835 4.328C53.8248 4.328 54.4248 4.512 54.8835 4.88C55.3475 5.24267 55.6862 5.75733 55.8995 6.424C56.1182 7.08533 56.2275 7.864 56.2275 8.76C56.2275 9.61867 56.0995 10.384 55.8435 11.056C55.5875 11.728 55.2088 12.256 54.7075 12.64C54.2115 13.024 53.5982 13.216 52.8675 13.216C51.9235 13.216 51.1822 12.8667 50.6435 12.168L50.5475 13H48.9715V1.16L50.7635 0.959999V5.56ZM52.4195 11.848C53.0275 11.848 53.4968 11.6 53.8275 11.104C54.1635 10.608 54.3315 9.82933 54.3315 8.768C54.3315 8.048 54.2648 7.464 54.1315 7.016C53.9982 6.56267 53.8008 6.232 53.5395 6.024C53.2835 5.816 52.9688 5.712 52.5955 5.712C52.1955 5.712 51.8435 5.832 51.5395 6.072C51.2355 6.312 50.9768 6.59467 50.7635 6.92V10.872C50.9608 11.176 51.1982 11.416 51.4755 11.592C51.7582 11.7627 52.0728 11.848 52.4195 11.848ZM75.8105 3.384L76.6345 4.68L71.1625 7.984L76.6345 11.288L75.7545 12.576L69.6185 8.752V7.216L75.8105 3.384ZM86.4505 3.384L92.6345 7.208V8.752L86.4985 12.576L85.6185 11.312L91.0985 7.984L85.6185 4.704L86.4505 3.384ZM87.2825 6.696L88.4185 7.24C88.2372 7.61867 88.0238 7.976 87.7785 8.312C87.5385 8.648 87.2505 8.92267 86.9145 9.136C86.5838 9.34933 86.1812 9.456 85.7065 9.456C85.3278 9.456 84.9998 9.376 84.7225 9.216C84.4398 9.056 84.1865 8.86933 83.9625 8.656C83.7332 8.44267 83.5118 8.256 83.2985 8.096C83.0798 7.936 82.8452 7.856 82.5945 7.856C82.3492 7.856 82.1252 7.936 81.9225 8.096C81.7145 8.256 81.5038 8.44267 81.2905 8.656C81.0772 8.86933 80.8372 9.056 80.5705 9.216C80.2985 9.376 79.9732 9.456 79.5945 9.456C79.2158 9.456 78.8878 9.376 78.6105 9.216C78.3278 9.056 78.0745 8.86933 77.8505 8.656C77.6212 8.44267 77.3998 8.256 77.1865 8.096C76.9678 7.936 76.7332 7.856 76.4825 7.856C76.1518 7.856 75.8692 7.98133 75.6345 8.232C75.3945 8.47733 75.1705 8.792 74.9625 9.176L73.8265 8.64C74.0132 8.272 74.2265 7.92 74.4665 7.584C74.7012 7.24267 74.9865 6.96267 75.3225 6.744C75.6585 6.52 76.0638 6.408 76.5385 6.408C76.9385 6.408 77.2798 6.488 77.5625 6.648C77.8452 6.808 78.0985 6.99467 78.3225 7.208C78.5465 7.42133 78.7625 7.608 78.9705 7.768C79.1785 7.928 79.4052 8.008 79.6505 8.008C79.8905 8.008 80.1092 7.928 80.3065 7.768C80.5038 7.608 80.7092 7.42133 80.9225 7.208C81.1305 6.99467 81.3705 6.808 81.6425 6.648C81.9145 6.488 82.2505 6.408 82.6505 6.408C83.0505 6.408 83.3918 6.488 83.6745 6.648C83.9572 6.808 84.2105 6.99467 84.4345 7.208C84.6585 7.42133 84.8745 7.608 85.0825 7.768C85.2905 7.928 85.5172 8.008 85.7625 8.008C86.0825 8.008 86.3625 7.888 86.6025 7.648C86.8478 7.40267 87.0745 7.08533 87.2825 6.696Z" fill="white"/>
</svg>
