<svg width="82" height="15" viewBox="0 0 82 15" fill="none" xmlns="http://www.w3.org/2000/svg">
<path d="M5.728 1.736C6.47467 1.736 7.104 1.83467 7.616 2.032C8.13333 2.224 8.61333 2.50133 9.056 2.864L8.088 4.016C7.75733 3.73867 7.40267 3.53333 7.024 3.4C6.64533 3.26667 6.24267 3.2 5.816 3.2C5.26667 3.2 4.76 3.33867 4.296 3.616C3.832 3.89333 3.45867 4.344 3.176 4.968C2.89867 5.592 2.76 6.424 2.76 7.464C2.76 8.48267 2.89333 9.304 3.16 9.928C3.42667 10.552 3.792 11.0053 4.256 11.288C4.72 11.5707 5.24 11.712 5.816 11.712C6.408 11.712 6.89867 11.616 7.288 11.424C7.67733 11.2267 8.02133 11.0053 8.32 10.76L9.216 11.904C8.848 12.2613 8.38133 12.5707 7.816 12.832C7.25067 13.088 6.56267 13.216 5.752 13.216C4.81867 13.216 3.97867 12.9973 3.232 12.56C2.49067 12.1173 1.904 11.4693 1.472 10.616C1.04533 9.76267 0.832 8.712 0.832 7.464C0.832 6.22667 1.05333 5.184 1.496 4.336C1.93867 3.48267 2.53067 2.83733 3.272 2.4C4.01333 1.95733 4.832 1.736 5.728 1.736ZM17.4738 10.928C17.4738 11.2587 17.5244 11.5013 17.6258 11.656C17.7271 11.8053 17.8898 11.9173 18.1138 11.992L17.7138 13.208C17.2978 13.16 16.9404 13.0453 16.6418 12.864C16.3431 12.6827 16.1164 12.408 15.9618 12.04C15.6524 12.4293 15.2604 12.7227 14.7858 12.92C14.3111 13.1173 13.8044 13.216 13.2658 13.216C12.4124 13.216 11.7351 12.976 11.2338 12.496C10.7378 12.0107 10.4898 11.376 10.4898 10.592C10.4898 9.70133 10.8364 9.016 11.5298 8.536C12.2231 8.056 13.2151 7.816 14.5058 7.816H15.7138V7.264C15.7138 6.72 15.5484 6.328 15.2178 6.088C14.8924 5.848 14.4311 5.728 13.8338 5.728C13.5564 5.728 13.2204 5.76533 12.8258 5.84C12.4311 5.90933 12.0178 6.01867 11.5858 6.168L11.1458 4.904C11.6738 4.70667 12.1911 4.56267 12.6978 4.472C13.2044 4.376 13.6738 4.328 14.1058 4.328C15.2364 4.328 16.0791 4.57867 16.6338 5.08C17.1938 5.58133 17.4738 6.27467 17.4738 7.16V10.928ZM13.8098 11.896C14.1724 11.896 14.5271 11.8 14.8738 11.608C15.2204 11.416 15.5004 11.1467 15.7138 10.8V8.936H14.7218C13.8791 8.936 13.2764 9.07733 12.9138 9.36C12.5511 9.63733 12.3698 10.0213 12.3698 10.512C12.3698 10.96 12.4898 11.304 12.7298 11.544C12.9751 11.7787 13.3351 11.896 13.8098 11.896ZM24.6835 11.744C25.0782 11.744 25.4462 11.6773 25.7875 11.544C26.1288 11.4053 26.4542 11.2267 26.7635 11.008L27.5955 12.16C27.2275 12.4747 26.7795 12.7307 26.2515 12.928C25.7288 13.12 25.1875 13.216 24.6275 13.216C23.7635 13.216 23.0248 13.0347 22.4115 12.672C21.7982 12.304 21.3288 11.7893 21.0035 11.128C20.6782 10.4667 20.5155 9.696 20.5155 8.816C20.5155 7.95733 20.6782 7.192 21.0035 6.52C21.3342 5.84267 21.8088 5.30933 22.4275 4.92C23.0462 4.52533 23.7902 4.328 24.6595 4.328C25.2355 4.328 25.7662 4.41333 26.2515 4.584C26.7368 4.75467 27.1822 5.008 27.5875 5.344L26.7635 6.472C26.4328 6.24267 26.0942 6.06933 25.7475 5.952C25.4062 5.82933 25.0542 5.768 24.6915 5.768C24.0248 5.768 23.4782 6.01333 23.0515 6.504C22.6302 6.99467 22.4195 7.76533 22.4195 8.816C22.4195 9.52 22.5155 10.088 22.7075 10.52C22.9048 10.9467 23.1742 11.2587 23.5155 11.456C23.8568 11.648 24.2462 11.744 24.6835 11.744ZM31.9973 0.983999V5.584C32.3386 5.168 32.7386 4.856 33.1973 4.648C33.6559 4.43467 34.1279 4.328 34.6133 4.328C35.4079 4.328 35.9999 4.54933 36.3893 4.992C36.7786 5.42933 36.9733 6.04533 36.9733 6.84V13H35.1813V7.12C35.1813 6.61333 35.0853 6.25067 34.8933 6.032C34.7013 5.808 34.3919 5.696 33.9653 5.696C33.6986 5.696 33.4426 5.75733 33.1973 5.88C32.9573 5.99733 32.7333 6.152 32.5253 6.344C32.3226 6.536 32.1466 6.74133 31.9973 6.96V13H30.2053V1.176L31.9973 0.983999ZM41.287 9.352C41.3243 9.928 41.447 10.4 41.655 10.768C41.863 11.1307 42.135 11.3973 42.471 11.568C42.8123 11.7387 43.1857 11.824 43.591 11.824C44.007 11.824 44.391 11.76 44.743 11.632C45.095 11.504 45.4497 11.3227 45.807 11.088L46.583 12.16C46.1883 12.48 45.727 12.736 45.199 12.928C44.671 13.12 44.1057 13.216 43.503 13.216C42.6283 13.216 41.887 13.0293 41.279 12.656C40.6763 12.2827 40.2177 11.7627 39.903 11.096C39.5883 10.4293 39.431 9.65867 39.431 8.784C39.431 7.936 39.5857 7.17867 39.895 6.512C40.2043 5.84 40.647 5.30933 41.223 4.92C41.799 4.52533 42.487 4.328 43.287 4.328C44.039 4.328 44.6843 4.49867 45.223 4.84C45.767 5.18133 46.1857 5.66667 46.479 6.296C46.7777 6.92 46.927 7.672 46.927 8.552C46.927 8.696 46.9217 8.84 46.911 8.984C46.9057 9.12267 46.8977 9.24533 46.887 9.352H41.287ZM43.303 5.656C42.743 5.656 42.279 5.856 41.911 6.256C41.5483 6.656 41.3377 7.28 41.279 8.128H45.191C45.175 7.33333 45.0043 6.72267 44.679 6.296C44.359 5.86933 43.9003 5.656 43.303 5.656ZM54.3528 0.959999L56.1448 1.16V13H54.5688L54.4408 11.96C54.1528 12.36 53.8088 12.6693 53.4088 12.888C53.0088 13.1067 52.5608 13.216 52.0648 13.216C51.3394 13.216 50.7421 13.032 50.2728 12.664C49.8034 12.2907 49.4541 11.7707 49.2248 11.104C49.0008 10.432 48.8888 9.656 48.8888 8.776C48.8888 7.91733 49.0221 7.15467 49.2888 6.488C49.5554 5.816 49.9368 5.288 50.4328 4.904C50.9288 4.52 51.5261 4.328 52.2248 4.328C52.6674 4.328 53.0648 4.408 53.4168 4.568C53.7688 4.72267 54.0808 4.94933 54.3528 5.248V0.959999ZM52.6968 5.704C52.0941 5.704 51.6248 5.95467 51.2888 6.456C50.9528 6.952 50.7848 7.72533 50.7848 8.776C50.7848 9.496 50.8541 10.0827 50.9928 10.536C51.1314 10.984 51.3314 11.3147 51.5928 11.528C51.8541 11.736 52.1688 11.84 52.5368 11.84C52.9421 11.84 53.2941 11.7227 53.5928 11.488C53.8914 11.2533 54.1448 10.9707 54.3528 10.64V6.64C54.1448 6.34133 53.9021 6.112 53.6248 5.952C53.3474 5.78667 53.0381 5.704 52.6968 5.704ZM72.054 9.568L80.854 5.696L81.462 7.024L72.654 10.936L72.054 9.568ZM72.438 13.448L81.238 9.576L81.846 10.896L73.038 14.816L72.438 13.448ZM72.054 2.992L72.654 1.624L81.462 5.536V7.024L80.854 6.856L72.054 2.992Z" fill="#ABB2BF"/>
</svg>
