<svg width="113" height="14" viewBox="0 0 113 14" fill="none" xmlns="http://www.w3.org/2000/svg">
<path d="M7.744 5.152C7.744 5.696 7.632 6.17067 7.408 6.576C7.18933 6.976 6.888 7.30933 6.504 7.576C6.12533 7.84267 5.70133 8.048 5.232 8.192L8.36 13H6.2L3.424 8.456H2.216V13H0.36V1.96H3.44C4.85867 1.96 5.93067 2.22667 6.656 2.76C7.38133 3.288 7.744 4.08533 7.744 5.152ZM5.8 5.152C5.8 4.512 5.61333 4.05067 5.24 3.768C4.872 3.48 4.30667 3.336 3.544 3.336H2.216V7.096H3.584C4.29333 7.096 4.84 6.94667 5.224 6.648C5.608 6.344 5.8 5.84533 5.8 5.152ZM11.5058 9.352C11.5431 9.928 11.6658 10.4 11.8738 10.768C12.0818 11.1307 12.3538 11.3973 12.6898 11.568C13.0311 11.7387 13.4044 11.824 13.8098 11.824C14.2258 11.824 14.6098 11.76 14.9618 11.632C15.3138 11.504 15.6684 11.3227 16.0258 11.088L16.8018 12.16C16.4071 12.48 15.9458 12.736 15.4178 12.928C14.8898 13.12 14.3244 13.216 13.7218 13.216C12.8471 13.216 12.1058 13.0293 11.4978 12.656C10.8951 12.2827 10.4364 11.7627 10.1218 11.096C9.80708 10.4293 9.64975 9.65867 9.64975 8.784C9.64975 7.936 9.80442 7.17867 10.1138 6.512C10.4231 5.84 10.8658 5.30933 11.4418 4.92C12.0178 4.52533 12.7058 4.328 13.5058 4.328C14.2578 4.328 14.9031 4.49867 15.4418 4.84C15.9858 5.18133 16.4044 5.66667 16.6978 6.296C16.9964 6.92 17.1458 7.672 17.1458 8.552C17.1458 8.696 17.1404 8.84 17.1298 8.984C17.1244 9.12267 17.1164 9.24533 17.1058 9.352H11.5058ZM13.5218 5.656C12.9618 5.656 12.4978 5.856 12.1298 6.256C11.7671 6.656 11.5564 7.28 11.4978 8.128H15.4098C15.3938 7.33333 15.2231 6.72267 14.8978 6.296C14.5778 5.86933 14.1191 5.656 13.5218 5.656ZM26.0675 10.928C26.0675 11.2587 26.1182 11.5013 26.2195 11.656C26.3208 11.8053 26.4835 11.9173 26.7075 11.992L26.3075 13.208C25.8915 13.16 25.5342 13.0453 25.2355 12.864C24.9368 12.6827 24.7102 12.408 24.5555 12.04C24.2462 12.4293 23.8542 12.7227 23.3795 12.92C22.9048 13.1173 22.3982 13.216 21.8595 13.216C21.0062 13.216 20.3288 12.976 19.8275 12.496C19.3315 12.0107 19.0835 11.376 19.0835 10.592C19.0835 9.70133 19.4302 9.016 20.1235 8.536C20.8168 8.056 21.8088 7.816 23.0995 7.816H24.3075V7.264C24.3075 6.72 24.1422 6.328 23.8115 6.088C23.4862 5.848 23.0248 5.728 22.4275 5.728C22.1502 5.728 21.8142 5.76533 21.4195 5.84C21.0248 5.90933 20.6115 6.01867 20.1795 6.168L19.7395 4.904C20.2675 4.70667 20.7848 4.56267 21.2915 4.472C21.7982 4.376 22.2675 4.328 22.6995 4.328C23.8302 4.328 24.6728 4.57867 25.2275 5.08C25.7875 5.58133 26.0675 6.27467 26.0675 7.16V10.928ZM22.4035 11.896C22.7662 11.896 23.1208 11.8 23.4675 11.608C23.8142 11.416 24.0942 11.1467 24.3075 10.8V8.936H23.3155C22.4728 8.936 21.8702 9.07733 21.5075 9.36C21.1448 9.63733 20.9635 10.0213 20.9635 10.512C20.9635 10.96 21.0835 11.304 21.3235 11.544C21.5688 11.7787 21.9288 11.896 22.4035 11.896ZM34.1653 0.959999L35.9573 1.16V13H34.3813L34.2533 11.96C33.9653 12.36 33.6213 12.6693 33.2213 12.888C32.8213 13.1067 32.3733 13.216 31.8773 13.216C31.1519 13.216 30.5546 13.032 30.0853 12.664C29.6159 12.2907 29.2666 11.7707 29.0373 11.104C28.8133 10.432 28.7013 9.656 28.7013 8.776C28.7013 7.91733 28.8346 7.15467 29.1013 6.488C29.3679 5.816 29.7493 5.288 30.2453 4.904C30.7413 4.52 31.3386 4.328 32.0373 4.328C32.4799 4.328 32.8773 4.408 33.2293 4.568C33.5813 4.72267 33.8933 4.94933 34.1653 5.248V0.959999ZM32.5093 5.704C31.9066 5.704 31.4373 5.95467 31.1013 6.456C30.7653 6.952 30.5973 7.72533 30.5973 8.776C30.5973 9.496 30.6666 10.0827 30.8053 10.536C30.9439 10.984 31.1439 11.3147 31.4053 11.528C31.6666 11.736 31.9813 11.84 32.3493 11.84C32.7546 11.84 33.1066 11.7227 33.4053 11.488C33.7039 11.2533 33.9573 10.9707 34.1653 10.64V6.64C33.9573 6.34133 33.7146 6.112 33.4373 5.952C33.1599 5.78667 32.8506 5.704 32.5093 5.704ZM54.2168 4.328C54.5368 4.328 54.8248 4.39733 55.0808 4.536C55.3368 4.67467 55.5368 4.91733 55.6808 5.264C55.8301 5.61067 55.9048 6.096 55.9048 6.72V13H54.3128V6.968C54.3128 6.52533 54.2808 6.208 54.2168 6.016C54.1581 5.824 54.0008 5.728 53.7448 5.728C53.5421 5.728 53.3368 5.792 53.1288 5.92C52.9208 6.04267 52.7101 6.256 52.4968 6.56V13H51.0488V6.968C51.0488 6.52533 51.0168 6.208 50.9528 6.016C50.8941 5.824 50.7368 5.728 50.4808 5.728C50.2728 5.728 50.0648 5.792 49.8568 5.92C49.6541 6.04267 49.4461 6.256 49.2328 6.56V13H47.6328V4.552H48.9848L49.1048 5.464C49.3448 5.128 49.6061 4.856 49.8888 4.648C50.1714 4.43467 50.5128 4.328 50.9128 4.328C51.2328 4.328 51.5234 4.408 51.7848 4.568C52.0461 4.728 52.2381 5.008 52.3608 5.408C52.5954 5.088 52.8621 4.82933 53.1608 4.632C53.4594 4.42933 53.8114 4.328 54.2168 4.328ZM61.3705 4.328C62.1972 4.328 62.8932 4.512 63.4585 4.88C64.0238 5.248 64.4505 5.76267 64.7385 6.424C65.0318 7.08533 65.1785 7.864 65.1785 8.76C65.1785 9.65067 65.0292 10.432 64.7305 11.104C64.4372 11.7707 64.0052 12.2907 63.4345 12.664C62.8692 13.032 62.1785 13.216 61.3625 13.216C60.5465 13.216 59.8532 13.0373 59.2825 12.68C58.7172 12.3173 58.2852 11.8027 57.9865 11.136C57.6932 10.4693 57.5465 9.68267 57.5465 8.776C57.5465 7.896 57.6932 7.12267 57.9865 6.456C58.2852 5.78933 58.7198 5.26933 59.2905 4.896C59.8612 4.51733 60.5545 4.328 61.3705 4.328ZM61.3705 5.72C60.7252 5.72 60.2398 5.968 59.9145 6.464C59.5892 6.95467 59.4265 7.72533 59.4265 8.776C59.4265 9.82133 59.5865 10.592 59.9065 11.088C60.2318 11.584 60.7172 11.832 61.3625 11.832C62.0078 11.832 62.4905 11.584 62.8105 11.088C63.1358 10.592 63.2985 9.816 63.2985 8.76C63.2985 7.72 63.1385 6.95467 62.8185 6.464C62.4985 5.968 62.0158 5.72 61.3705 5.72ZM67.6603 13V11.72H68.9003V5.824H67.6603V4.552H70.2682L70.5963 6.512C70.9109 5.80267 71.3003 5.264 71.7643 4.896C72.2336 4.52267 72.8363 4.336 73.5723 4.336C73.8229 4.336 74.0469 4.35733 74.2443 4.4C74.4469 4.43733 74.6469 4.488 74.8443 4.552L74.3083 6.088C74.1376 6.04 73.9776 6.00533 73.8283 5.984C73.6789 5.95733 73.5136 5.944 73.3323 5.944C72.7189 5.944 72.1883 6.17333 71.7403 6.632C71.2976 7.09067 70.9483 7.74133 70.6923 8.584V11.72H72.3963V13H67.6603ZM73.2603 7.664V5.584L73.4843 4.552H74.8443L74.5403 7.664H73.2603ZM78.662 9.352C78.6993 9.928 78.822 10.4 79.03 10.768C79.238 11.1307 79.51 11.3973 79.846 11.568C80.1873 11.7387 80.5607 11.824 80.966 11.824C81.382 11.824 81.766 11.76 82.118 11.632C82.47 11.504 82.8247 11.3227 83.182 11.088L83.958 12.16C83.5633 12.48 83.102 12.736 82.574 12.928C82.046 13.12 81.4807 13.216 80.878 13.216C80.0033 13.216 79.262 13.0293 78.654 12.656C78.0513 12.2827 77.5927 11.7627 77.278 11.096C76.9633 10.4293 76.806 9.65867 76.806 8.784C76.806 7.936 76.9607 7.17867 77.27 6.512C77.5793 5.84 78.022 5.30933 78.598 4.92C79.174 4.52533 79.862 4.328 80.662 4.328C81.414 4.328 82.0593 4.49867 82.598 4.84C83.142 5.18133 83.5607 5.66667 83.854 6.296C84.1527 6.92 84.302 7.672 84.302 8.552C84.302 8.696 84.2967 8.84 84.286 8.984C84.2807 9.12267 84.2727 9.24533 84.262 9.352H78.662ZM80.678 5.656C80.118 5.656 79.654 5.856 79.286 6.256C78.9233 6.656 78.7127 7.28 78.654 8.128H82.566C82.55 7.33333 82.3793 6.72267 82.054 6.296C81.734 5.86933 81.2753 5.656 80.678 5.656ZM96.8335 8.752V7.232H104.698V8.752H96.8335ZM110.931 8.752H104.371V7.232H110.931V8.752ZM107.779 2.928L112.315 7.992L107.779 13.056L106.531 11.992L108.379 9.968C108.641 9.69067 108.87 9.45867 109.067 9.272C109.265 9.08 109.489 8.90667 109.739 8.752V7.232C109.489 7.07733 109.265 6.90667 109.067 6.72C108.87 6.528 108.641 6.29333 108.379 6.016L106.531 3.992L107.779 2.928Z" fill="white"/>
</svg>
