<svg width="115" height="14" viewBox="0 0 115 14" fill="none" xmlns="http://www.w3.org/2000/svg">
<path d="M4.84 11.24L7.48 1.96H9.36L5.864 13H3.736L0.24 1.96H2.224L4.84 11.24ZM15.6338 4.552V11.688H17.9298V13H11.3138V11.688H13.8418V5.864H11.3938V4.552H15.6338ZM14.3858 0.415999C14.7378 0.415999 15.0204 0.522666 15.2338 0.735999C15.4524 0.949333 15.5618 1.216 15.5618 1.536C15.5618 1.856 15.4524 2.12533 15.2338 2.344C15.0204 2.56267 14.7378 2.672 14.3858 2.672C14.0444 2.672 13.7644 2.56267 13.5458 2.344C13.3271 2.12533 13.2178 1.856 13.2178 1.536C13.2178 1.216 13.3271 0.949333 13.5458 0.735999C13.7644 0.522666 14.0444 0.415999 14.3858 0.415999ZM22.0995 9.352C22.1368 9.928 22.2595 10.4 22.4675 10.768C22.6755 11.1307 22.9475 11.3973 23.2835 11.568C23.6248 11.7387 23.9982 11.824 24.4035 11.824C24.8195 11.824 25.2035 11.76 25.5555 11.632C25.9075 11.504 26.2622 11.3227 26.6195 11.088L27.3955 12.16C27.0008 12.48 26.5395 12.736 26.0115 12.928C25.4835 13.12 24.9182 13.216 24.3155 13.216C23.4408 13.216 22.6995 13.0293 22.0915 12.656C21.4888 12.2827 21.0302 11.7627 20.7155 11.096C20.4008 10.4293 20.2435 9.65867 20.2435 8.784C20.2435 7.936 20.3982 7.17867 20.7075 6.512C21.0168 5.84 21.4595 5.30933 22.0355 4.92C22.6115 4.52533 23.2995 4.328 24.0995 4.328C24.8515 4.328 25.4968 4.49867 26.0355 4.84C26.5795 5.18133 26.9982 5.66667 27.2915 6.296C27.5902 6.92 27.7395 7.672 27.7395 8.552C27.7395 8.696 27.7342 8.84 27.7235 8.984C27.7182 9.12267 27.7102 9.24533 27.6995 9.352H22.0995ZM24.1155 5.656C23.5555 5.656 23.0915 5.856 22.7235 6.256C22.3608 6.656 22.1502 7.28 22.0915 8.128H26.0035C25.9875 7.33333 25.8168 6.72267 25.4915 6.296C25.1715 5.86933 24.7128 5.656 24.1155 5.656ZM36.8133 13H34.5733L33.6213 7L32.5973 13H30.4053L28.9733 4.552H30.7013L31.5813 11.888L32.7573 5.624H34.5493L35.6453 11.888L36.5253 4.552H38.1892L36.8133 13ZM55.8488 10.928C55.8488 11.2587 55.8994 11.5013 56.0008 11.656C56.1021 11.8053 56.2648 11.9173 56.4888 11.992L56.0888 13.208C55.6728 13.16 55.3154 13.0453 55.0168 12.864C54.7181 12.6827 54.4914 12.408 54.3368 12.04C54.0274 12.4293 53.6354 12.7227 53.1608 12.92C52.6861 13.1173 52.1794 13.216 51.6408 13.216C50.7874 13.216 50.1101 12.976 49.6088 12.496C49.1128 12.0107 48.8648 11.376 48.8648 10.592C48.8648 9.70133 49.2114 9.016 49.9048 8.536C50.5981 8.056 51.5901 7.816 52.8808 7.816H54.0888V7.264C54.0888 6.72 53.9234 6.328 53.5928 6.088C53.2674 5.848 52.8061 5.728 52.2088 5.728C51.9314 5.728 51.5954 5.76533 51.2008 5.84C50.8061 5.90933 50.3928 6.01867 49.9608 6.168L49.5208 4.904C50.0488 4.70667 50.5661 4.56267 51.0728 4.472C51.5794 4.376 52.0488 4.328 52.4808 4.328C53.6114 4.328 54.4541 4.57867 55.0088 5.08C55.5688 5.58133 55.8488 6.27467 55.8488 7.16V10.928ZM52.1848 11.896C52.5474 11.896 52.9021 11.8 53.2488 11.608C53.5954 11.416 53.8754 11.1467 54.0888 10.8V8.936H53.0968C52.2541 8.936 51.6514 9.07733 51.2888 9.36C50.9261 9.63733 50.7448 10.0213 50.7448 10.512C50.7448 10.96 50.8648 11.304 51.1048 11.544C51.3501 11.7787 51.7101 11.896 52.1848 11.896ZM62.6985 1.16V10.696C62.6985 11.0853 62.8158 11.3627 63.0505 11.528C63.2905 11.688 63.5998 11.768 63.9785 11.768C64.2238 11.768 64.4558 11.7413 64.6745 11.688C64.8932 11.6347 65.1065 11.568 65.3145 11.488L65.7705 12.736C65.5198 12.864 65.2105 12.976 64.8425 13.072C64.4798 13.168 64.0638 13.216 63.5945 13.216C62.7465 13.216 62.0852 12.9787 61.6105 12.504C61.1412 12.024 60.9065 11.368 60.9065 10.536V2.48H58.3545V1.16H62.6985ZM72.2923 1.16V10.696C72.2923 11.0853 72.4096 11.3627 72.6443 11.528C72.8843 11.688 73.1936 11.768 73.5723 11.768C73.8176 11.768 74.0496 11.7413 74.2683 11.688C74.4869 11.6347 74.7003 11.568 74.9083 11.488L75.3643 12.736C75.1136 12.864 74.8043 12.976 74.4363 13.072C74.0736 13.168 73.6576 13.216 73.1883 13.216C72.3403 13.216 71.6789 12.9787 71.2043 12.504C70.7349 12.024 70.5003 11.368 70.5003 10.536V2.48H67.9483V1.16H72.2923ZM109.283 8.088C109.491 8.088 109.67 8.04 109.819 7.944C109.969 7.848 110.115 7.728 110.259 7.584C110.409 7.44 110.579 7.30133 110.771 7.168C110.963 7.02933 111.203 6.92 111.491 6.84C111.779 6.75467 112.142 6.72533 112.579 6.752V8.376C112.307 8.38133 112.083 8.42933 111.907 8.52C111.731 8.60533 111.569 8.712 111.419 8.84C111.27 8.96267 111.107 9.088 110.931 9.216C110.755 9.33867 110.537 9.44267 110.275 9.528C110.019 9.61333 109.689 9.656 109.283 9.656C108.889 9.656 108.555 9.6 108.283 9.488C108.017 9.37067 107.787 9.22933 107.595 9.064C107.409 8.89333 107.238 8.72533 107.083 8.56C106.934 8.38933 106.779 8.248 106.619 8.136C106.465 8.01867 106.286 7.96 106.083 7.96C105.881 7.96 105.702 8.01333 105.547 8.12C105.393 8.22667 105.238 8.36 105.083 8.52C104.929 8.68 104.758 8.84 104.571 9C104.379 9.16 104.15 9.29333 103.883 9.4C103.617 9.50667 103.283 9.56 102.883 9.56C102.483 9.56 102.147 9.50933 101.875 9.408C101.598 9.30667 101.366 9.184 101.179 9.04C100.993 8.89067 100.827 8.74133 100.683 8.592C100.534 8.44267 100.382 8.32 100.227 8.224C100.073 8.12267 99.8912 8.072 99.6832 8.072C99.4752 8.072 99.2939 8.12533 99.1392 8.232C98.9792 8.33867 98.8246 8.472 98.6752 8.632C98.5206 8.78667 98.3499 8.944 98.1632 9.104C97.9712 9.25867 97.7446 9.38933 97.4832 9.496C97.2166 9.60267 96.8832 9.656 96.4832 9.656C96.0886 9.656 95.7579 9.6 95.4912 9.488C95.2192 9.37067 94.9899 9.22933 94.8032 9.064C94.6112 8.89333 94.4406 8.72533 94.2912 8.56C94.1366 8.38933 93.9819 8.248 93.8272 8.136C93.6672 8.01867 93.4859 7.96 93.2832 7.96C93.0806 7.96 92.9019 8.01333 92.7472 8.12C92.5926 8.22667 92.4379 8.36 92.2832 8.52C92.1286 8.68 91.9579 8.84 91.7712 9C91.5792 9.16 91.3499 9.29333 91.0832 9.4C90.8166 9.50667 90.4832 9.56 90.0832 9.56C89.6992 9.56 89.3126 9.45867 88.9232 9.256C88.5339 9.048 88.1872 8.78667 87.8832 8.472C87.5792 8.152 87.3632 7.82133 87.2352 7.48L88.6432 6.816C88.8032 7.16267 89.0166 7.46133 89.2832 7.712C89.5446 7.96267 89.8112 8.088 90.0832 8.088C90.2912 8.088 90.4726 8.03467 90.6272 7.928C90.7766 7.82133 90.9286 7.688 91.0832 7.528C91.2379 7.368 91.4112 7.208 91.6032 7.048C91.7899 6.888 92.0192 6.75467 92.2912 6.648C92.5579 6.54133 92.8886 6.488 93.2832 6.488C93.6832 6.488 94.0166 6.54133 94.2832 6.648C94.5499 6.75467 94.7792 6.888 94.9712 7.048C95.1579 7.208 95.3286 7.368 95.4832 7.528C95.6379 7.688 95.7926 7.82133 95.9472 7.928C96.1019 8.03467 96.2806 8.088 96.4832 8.088C96.6859 8.088 96.8646 8.03467 97.0192 7.928C97.1739 7.82133 97.3286 7.688 97.4832 7.528C97.6379 7.368 97.8112 7.208 98.0032 7.048C98.1899 6.888 98.4192 6.75467 98.6912 6.648C98.9579 6.54133 99.2886 6.488 99.6832 6.488C100.089 6.488 100.427 6.54133 100.699 6.648C100.971 6.75467 101.201 6.888 101.387 7.048C101.574 7.208 101.742 7.368 101.891 7.528C102.041 7.688 102.193 7.82133 102.347 7.928C102.497 8.03467 102.675 8.088 102.883 8.088C103.091 8.088 103.273 8.03467 103.427 7.928C103.577 7.82133 103.729 7.688 103.883 7.528C104.038 7.368 104.211 7.208 104.403 7.048C104.59 6.888 104.819 6.75467 105.091 6.648C105.358 6.54133 105.689 6.488 106.083 6.488C106.478 6.488 106.809 6.54133 107.075 6.648C107.347 6.75467 107.577 6.888 107.763 7.048C107.955 7.208 108.129 7.368 108.283 7.528C108.438 7.688 108.593 7.82133 108.747 7.928C108.902 8.03467 109.081 8.088 109.283 8.088ZM109.963 2.928L114.499 7.992L109.963 13.056L108.715 11.992L110.563 9.968C110.819 9.69067 111.046 9.45867 111.243 9.272C111.446 9.08 111.673 8.90667 111.923 8.752V7.232C111.673 7.07733 111.446 6.90667 111.243 6.72C111.046 6.528 110.819 6.29333 110.563 6.016L108.715 3.992L109.963 2.928Z" fill="white"/>
</svg>
